<?xml version="1.0" encoding="utf-8"?>
<!-- Generator: Adobe Illustrator 26.5.1, SVG Export Plug-In . SVG Version: 6.00 Build 0)  -->
<svg version="1.1" id="Capa_1" xmlns="http://www.w3.org/2000/svg" xmlns:xlink="http://www.w3.org/1999/xlink" x="0px" y="0px"
	 viewBox="0 0 80 80" style="enable-background:new 0 0 80 80;" xml:space="preserve">
<style type="text/css">
	.st0{fill:#CC3333;}
	.st1{fill:#FFFFFF;}
	.st2{fill:#F0F0F1;}
	.st3{fill:none;stroke:#FFFFFF;stroke-width:1.9422;stroke-miterlimit:10;}
</style>
<g>
	<path class="st0" d="M73.1,80h-66c-3.9,0-7-3.1-7-7V7c0-3.9,3.1-7,7-7h66c3.9,0,7,3.1,7,7v66C80.1,76.9,77,80,73.1,80z"/>
	<g>
		<path class="st0" d="M55.3,56.4H26V38.1c0-8.1,6.6-14.6,14.6-14.6c8.1,0,14.6,6.6,14.6,14.6V56.4z"/>
		<path class="st1" d="M56.4,57.4H25V38.1c0-4.2,1.6-8.1,4.6-11.1c3-3,6.9-4.6,11.1-4.6c4.2,0,8.1,1.6,11.1,4.6
			c3,3,4.6,6.9,4.6,11.1V57.4z M27.1,55.3h27.2V38.1c0-3.6-1.4-7-4-9.6c-2.6-2.6-6-4-9.6-4c-3.6,0-7,1.4-9.6,4c-2.6,2.6-4,6-4,9.6
			V55.3z"/>
		<g>
			<path class="st2" d="M42.6,27.3c-1,0-2,0.2-3,0.5c4,1.3,6.9,5,6.9,9.4v16h5.9v-16C52.4,31.7,48,27.3,42.6,27.3z"/>
		</g>
		<rect x="23" y="55.3" class="st1" width="35.4" height="7.3"/>
		<line class="st3" x1="11.5" y1="17.6" x2="22.4" y2="28.6"/>
		<line class="st3" x1="4.7" y1="38.3" x2="20.2" y2="38.8"/>
		<line class="st3" x1="6.1" y1="53.8" x2="20.9" y2="49.1"/>
		<line class="st3" x1="68.7" y1="17.9" x2="57.8" y2="28.8"/>
		<line class="st3" x1="75.5" y1="38.5" x2="60.1" y2="39"/>
		<line class="st3" x1="74.1" y1="54.1" x2="59.4" y2="49.3"/>
	</g>
</g>
</svg>
